HIERARCHY
ROOT hip
{
	OFFSET 0.000000 0.000000 0.000000 
	CHANNELS 6 Xposition Yposition Zposition Xrotation Zrotation Yrotation
	JOINT abdomen
	{
		OFFSET 0.000000 3.402643 0.000000 
		CHANNELS 3 Xrotation Zrotation Yrotation
		JOINT chest
		{
			OFFSET 0.000000 8.438565 -0.680529 
			CHANNELS 3 Xrotation Zrotation Yrotation
			JOINT neck
			{
				OFFSET 0.000000 10.207942 -0.272212 
				CHANNELS 3 Xrotation Zrotation Yrotation
				JOINT head
				{
					OFFSET 0.000000 3.130431 0.000000 
					CHANNELS 3 Xrotation Zrotation Yrotation
					End Site
					{
						OFFSET 0.000000 3.130435 0.000000 
					}
				}
			}
			JOINT lCollar
			{
				OFFSET 3.470700 6.669187 -0.816635 
				CHANNELS 3 Yrotation Zrotation Xrotation
				JOINT lShldr
				{
					OFFSET 3.198488 0.000000 0.000000 
					CHANNELS 3 Zrotation Yrotation Xrotation
					JOINT lForeArm
					{
						OFFSET 10.139888 0.000000 0.000000 
						CHANNELS 3 Yrotation Zrotation Xrotation
						JOINT lHand
						{
							OFFSET 8.370511 0.000000 0.000000 
							CHANNELS 3 Zrotation Yrotation Xrotation
							End Site
							{
								OFFSET 4.083176 0.000000 0.000000 
							}
						}
					}
				}
			}
			JOINT rCollar
			{
				OFFSET -3.470700 6.669187 -0.816635 
				CHANNELS 3 Yrotation Zrotation Xrotation
				JOINT rShldr
				{
					OFFSET -3.198488 0.000000 0.000000 
					CHANNELS 3 Zrotation Yrotation Xrotation
					JOINT rForeArm
					{
						OFFSET -10.139888 0.000000 0.000000 
						CHANNELS 3 Yrotation Zrotation Xrotation
						JOINT rHand
						{
							OFFSET -8.370511 0.000000 0.000000 
							CHANNELS 3 Zrotation Yrotation Xrotation
							End Site
							{
								OFFSET -4.083176 0.000000 0.000000 
							}
						}
					}
				}
			}
		}
	}
	JOINT lThigh
	{
		OFFSET 5.308129 -1.633274 1.361059 
		CHANNELS 3 Xrotation Zrotation Yrotation
		JOINT lShin
		{
			OFFSET -2.041588 -20.007561 0.000000 
			CHANNELS 3 Xrotation Zrotation Yrotation
			JOINT lFoot
			{
				OFFSET 0.000000 -19.190928 -1.224953 
				CHANNELS 3 Xrotation Yrotation Zrotation
				End Site
				{
					OFFSET 0.000000 -2.449906 4.627600 
				}
			}
		}
	}
	JOINT rThigh
	{
		OFFSET -5.308129 -1.633274 1.361059 
		CHANNELS 3 Xrotation Zrotation Yrotation
		JOINT rShin
		{
			OFFSET 2.041588 -20.007561 0.000000 
			CHANNELS 3 Xrotation Zrotation Yrotation
			JOINT rFoot
			{
				OFFSET 0.000000 -19.190928 -1.224953 
				CHANNELS 3 Xrotation Yrotation Zrotation
				End Site
				{
					OFFSET 0.000000 -2.449906 4.627600 
				}
			}
		}
	}
}
MOTION
Frames: 9
Frame Time: 0.033333
66.848000 54.838352 -23.149162 7.158204 -10.830078 58.904411 23.836926 -0.261384 -22.736927 -18.349609 8.886719 -3.074664 51.063168 8.107644 2.471410 -64.960938 3.886718 45.722656 2.000000 -2.000000 0.000000 -65.263672 0.341797 27.744164 -62.013138 -1.828292 -2.383986 10.671589 50.626190 -6.490330 -2.000000 2.000000 0.000000 63.437500 -48.447266 -71.806641 77.418396 0.343466 -2.587764 1.053908 -65.800468 11.521684 -6.273514 3.323354 17.887575 11.371677 -5.167849 -1.184387 23.709078 18.960514 -34.690708 -11.258646 -2.509711 12.770700 5.728532 5.355344 0.720228 14.238415 -0.834567 -4.828970 
66.742126 54.838352 -23.331995 8.583984 -10.976563 53.533298 24.569866 -0.797461 -21.848602 -18.476563 9.765626 -2.929687 51.063168 8.107644 2.471410 -71.621094 4.628906 46.552734 2.000000 -2.000000 0.000000 -61.943359 -2.402344 22.656248 -62.187370 -1.639088 -2.326262 12.542230 51.332027 -4.200966 -2.000000 2.000000 0.000000 60.673828 -51.386715 -66.699219 73.913460 0.657705 -2.608647 -8.353378 -69.972649 19.710838 -8.728413 2.713444 13.018917 14.362518 -5.107686 -1.496311 28.267839 19.643282 -45.970512 -15.128262 -1.583685 14.188682 11.374204 5.279830 1.212921 16.059858 1.124670 -7.847078 
67.255692 54.538982 -23.504881 10.029297 -11.083984 48.093826 25.291018 -1.296853 -21.337481 -19.345705 10.322266 -2.636719 51.063168 8.107644 2.471410 -76.191406 5.029296 46.953125 2.000000 -2.000000 0.000000 -59.541012 -1.708984 15.732130 -62.180546 -1.479023 -2.433636 14.373341 52.177937 -0.949006 -2.000000 2.000000 0.000000 58.515625 -53.144531 -61.884766 71.978203 0.722553 -2.546215 -19.849585 -72.389015 30.282282 -10.391294 1.988488 8.994940 17.189156 -5.594178 -1.651660 29.282352 22.393002 -55.470810 -22.778776 -1.543901 13.359035 18.055189 5.103463 1.756163 15.201151 2.914642 -8.389897 
68.159668 54.019024 -23.550011 11.455077 -11.220703 42.871094 26.008406 -1.968250 -20.928980 -20.761719 10.732421 -2.314453 51.063168 8.107644 2.471410 -78.876953 4.384766 47.676525 2.000000 -2.000000 0.000000 -57.900387 -0.654297 8.408092 -62.358246 -1.629793 -2.503093 16.079660 52.996208 1.465567 -2.000000 2.000000 0.000000 59.257813 -52.587891 -63.415958 70.925224 0.589460 -2.612606 -26.937935 -72.033234 36.760666 -11.563379 0.652264 8.386274 19.312746 -5.111030 -2.067625 27.444197 25.707890 -61.886623 -32.201881 -2.344323 12.191277 26.014082 4.701231 2.406088 7.816489 1.660841 -6.471839 
69.159813 53.404533 -23.456621 12.900391 -11.152343 38.201237 26.552612 -2.477882 -20.423336 -22.187500 10.966797 -1.855469 51.063168 8.107644 2.471410 -80.029297 2.910156 48.251949 2.000000 -2.000000 0.000000 -57.314453 0.234375 1.875000 -62.707958 -1.430277 -2.436471 17.139975 53.073200 3.095774 -2.000000 2.000000 0.000000 60.830074 -50.566406 -66.552734 70.920364 0.589015 -2.436622 -30.204712 -70.461006 39.591675 -12.640177 -0.079112 8.610537 22.854355 -5.423622 -2.133666 23.149696 30.158615 -65.858444 -41.320351 -3.321157 10.474254 33.422909 4.396707 3.164564 -1.742838 -0.981815 -3.372602 
70.167488 52.719151 -23.235605 13.789063 -11.279297 34.128948 26.918358 -3.043264 -20.143518 -23.603518 11.201172 -1.572266 51.063168 8.107644 2.471410 -80.498047 1.259766 48.505863 2.000000 -2.000000 0.000000 -57.499996 0.625000 -4.540909 -62.699150 -1.109688 -2.474677 17.413954 53.361477 3.239877 -2.000000 2.000000 0.000000 62.958984 -48.525391 -69.970695 71.277565 0.639904 -2.639015 -34.147236 -67.676208 42.294292 -13.501970 -0.713166 9.916192 25.834032 -5.288022 -2.388315 18.559704 33.870209 -67.729347 -47.819168 -4.492628 9.600792 37.629517 4.049963 3.393808 -7.375264 -2.443031 -2.331629 
70.910156 52.057384 -22.549053 13.984375 -11.455077 30.886734 27.112711 -3.716054 -19.708694 -24.687500 11.064454 -1.269531 51.063168 8.107644 2.471410 -80.966797 0.087891 48.320313 2.000000 -2.000000 0.000000 -57.802738 1.816406 -9.511719 -62.523354 -1.119437 -2.474110 16.977110 53.627186 3.182563 -2.000000 2.000000 0.000000 65.380859 -47.499996 -71.767578 71.279381 0.751105 -2.701140 -38.683590 -63.466629 43.988285 -13.541623 -0.225482 12.470883 29.369318 -4.688547 -2.856579 14.606143 35.319115 -67.768127 -49.709610 -5.274212 11.140446 36.750065 4.092967 3.365513 -7.643507 -1.621112 -1.449054 
71.365387 51.285343 -21.046459 13.828126 -11.806641 28.552687 26.946459 -4.245842 -19.183037 -25.595703 10.732422 -0.957031 51.063168 8.107644 2.471410 -81.181641 -0.351562 47.880863 2.000000 -2.000000 0.000000 -57.353516 4.130859 -11.073515 -62.347305 -1.118870 -2.464365 15.802340 54.476555 3.679656 -2.000000 2.000000 0.000000 67.539063 -45.966797 -72.822258 71.262184 0.559768 -2.438318 -44.098763 -58.213989 45.977596 -12.855868 1.160100 14.652169 32.700092 -4.479541 -2.943468 11.483603 34.639576 -67.151024 -48.148754 -5.899400 13.273730 32.515644 4.353427 3.243349 -5.917087 0.221132 -0.488760 
71.887756 50.552673 -18.957415 13.310547 -12.353517 27.478382 26.058846 -4.592849 -18.909172 -25.791016 9.863282 -0.859375 51.063168 8.107644 2.471410 -80.830078 -0.380859 46.826111 2.000000 -2.000000 0.000000 -57.001953 7.324219 -10.858129 -61.819401 -1.137235 -2.443740 13.795099 56.047630 3.513508 -2.000000 2.000000 0.000000 71.738281 -44.707031 -74.821320 70.900711 0.266726 -2.445540 -47.400871 -54.941906 45.550449 -10.560213 3.149673 16.261860 34.949360 -4.366518 -3.097080 9.119302 32.339497 -67.221527 -45.941059 -6.807394 14.090002 29.713949 4.505017 3.053771 -6.112586 2.465991 -0.616874 
